<svg id="visual" viewBox="0 0 900 600" width="900" height="600" xmlns="http://www.w3.org/2000/svg" xmlns:xlink="http://www.w3.org/1999/xlink" version="1.1"><rect x="0" y="0" width="900" height="600" fill="#071a32"></rect><path d="M0 412L129 389L257 404L386 379L514 345L643 379L771 407L900 326L900 601L771 601L643 601L514 601L386 601L257 601L129 601L0 601Z" fill="#5ca1e1"></path><path d="M0 402L129 371L257 393L386 398L514 372L643 409L771 412L900 417L900 601L771 601L643 601L514 601L386 601L257 601L129 601L0 601Z" fill="#4e8cc6"></path><path d="M0 405L129 466L257 444L386 489L514 434L643 423L771 453L900 462L900 601L771 601L643 601L514 601L386 601L257 601L129 601L0 601Z" fill="#4177ac"></path><path d="M0 485L129 502L257 457L386 502L514 505L643 478L771 510L900 495L900 601L771 601L643 601L514 601L386 601L257 601L129 601L0 601Z" fill="#336393"></path><path d="M0 525L129 515L257 508L386 529L514 471L643 484L771 513L900 486L900 601L771 601L643 601L514 601L386 601L257 601L129 601L0 601Z" fill="#254f7a"></path><path d="M0 522L129 559L257 557L386 502L514 552L643 507L771 553L900 539L900 601L771 601L643 601L514 601L386 601L257 601L129 601L0 601Z" fill="#173d63"></path><path d="M0 568L129 561L257 568L386 583L514 549L643 570L771 541L900 550L900 601L771 601L643 601L514 601L386 601L257 601L129 601L0 601Z" fill="#082b4c"></path></svg>