<svg id="visual" viewBox="0 0 900 600" width="900" height="600" xmlns="http://www.w3.org/2000/svg" xmlns:xlink="http://www.w3.org/1999/xlink" version="1.1"><rect x="0" y="0" width="900" height="600" fill="#ffffff"></rect><path d="M0 449L113 432L225 438L338 453L450 446L563 415L675 415L788 408L900 448L900 601L788 601L675 601L563 601L450 601L338 601L225 601L113 601L0 601Z" fill="#0a83f5"></path><path d="M0 462L113 468L225 476L338 469L450 451L563 481L675 459L788 471L900 492L900 601L788 601L675 601L563 601L450 601L338 601L225 601L113 601L0 601Z" fill="#0f69cf"></path><path d="M0 529L113 532L225 527L338 501L450 522L563 491L675 501L788 526L900 530L900 601L788 601L675 601L563 601L450 601L338 601L225 601L113 601L0 601Z" fill="#0a50ab"></path><path d="M0 567L113 536L225 569L338 539L450 544L563 546L675 557L788 548L900 563L900 601L788 601L675 601L563 601L450 601L338 601L225 601L113 601L0 601Z" fill="#003987"></path></svg>